<svg width="24" height="19" viewBox="0 0 24 19" fill="none" xmlns="http://www.w3.org/2000/svg">
<path fill-rule="evenodd" clip-rule="evenodd" d="M0 9.5C0 5.75027 0 3.8754 0.954915 2.56107C1.26331 2.1366 1.6366 1.76331 2.06107 1.45491C3.3754 0.5 5.25027 0.5 9 0.5H15C18.7497 0.5 20.6246 0.5 21.9389 1.45491C22.3634 1.76331 22.7367 2.1366 23.0451 2.56107C24 3.8754 24 5.75027 24 9.5C24 13.2497 24 15.1246 23.0451 16.4389C22.7367 16.8634 22.3634 17.2367 21.9389 17.5451C20.6246 18.5 18.7497 18.5 15 18.5H9C5.25027 18.5 3.3754 18.5 2.06107 17.5451C1.6366 17.2367 1.26331 16.8634 0.954915 16.4389C0 15.1246 0 13.2497 0 9.5ZM9 2.5H15C16.9194 2.5 18.1983 2.50275 19.1673 2.60773C20.0989 2.70866 20.504 2.88448 20.7634 3.07295C21.018 3.25799 21.242 3.48196 21.4271 3.73664C21.6155 3.99605 21.7913 4.40113 21.8923 5.33269C21.9973 6.30167 22 7.5806 22 9.5C22 11.4194 21.9973 12.6983 21.8923 13.6673C21.7913 14.5989 21.6155 15.004 21.4271 15.2634C21.242 15.518 21.018 15.742 20.7634 15.9271C20.504 16.1155 20.0989 16.2913 19.1673 16.3923C18.1983 16.4973 16.9194 16.5 15 16.5H9C7.08058 16.5 5.80167 16.4973 4.83269 16.3923C3.90113 16.2913 3.49605 16.1155 3.23664 15.9271C2.98196 15.742 2.75799 15.518 2.57295 15.2634C2.38448 15.004 2.20866 14.5989 2.10773 13.6673C2.00275 12.6983 2 11.4194 2 9.5C2 7.5806 2.00275 6.30167 2.10773 5.33269C2.20866 4.40113 2.38448 3.99605 2.57295 3.73664C2.75799 3.48196 2.98196 3.25799 3.23664 3.07295C3.49605 2.88448 3.90113 2.70866 4.83269 2.60773C5.80167 2.50275 7.08058 2.5 9 2.5Z" fill="#0F0F0F"/>
</svg>
